<svg width="244" height="79" viewBox="0 0 244 79" fill="none" xmlns="http://www.w3.org/2000/svg">
<path d="M95.288 30.2913V34H84.629V30.2913H95.288ZM86.3459 14.0007V34H81.5247V14.0007H86.3459ZM93.9144 21.94V25.525H84.629V21.94H93.9144ZM95.3292 14.0007V17.7231H84.629V14.0007H95.3292ZM113.969 14.0007V34H109.161L102.087 21.5554V34H97.2659V14.0007H102.087L109.161 26.4453V14.0007H113.969ZM126.29 14.0007V34H121.468V14.0007H126.29ZM132.306 14.0007V17.7231H115.589V14.0007H132.306ZM148.116 30.2913V34H137.457V30.2913H148.116ZM139.174 14.0007V34H134.353V14.0007H139.174ZM146.742 21.94V25.525H137.457V21.94H146.742ZM148.157 14.0007V17.7231H137.457V14.0007H148.157ZM150.094 14.0007H157.964C159.503 14.0007 160.84 14.2296 161.975 14.6874C163.111 15.1453 163.985 15.8229 164.599 16.7203C165.222 17.6178 165.533 18.7258 165.533 20.0444C165.533 21.1891 165.354 22.146 164.997 22.9152C164.64 23.6844 164.141 24.3208 163.5 24.8245C162.868 25.319 162.131 25.7265 161.289 26.047L159.709 26.9398H153.102L153.075 23.2174H157.964C158.578 23.2174 159.086 23.1075 159.489 22.8877C159.892 22.668 160.194 22.3566 160.396 21.9537C160.606 21.5416 160.712 21.0517 160.712 20.484C160.712 19.9071 160.606 19.4126 160.396 19.0005C160.185 18.5884 159.874 18.2725 159.462 18.0527C159.059 17.8329 158.56 17.7231 157.964 17.7231H154.915V34H150.094V14.0007ZM161.041 34L156.618 25.1541L161.728 25.1267L166.206 33.794V34H161.041ZM178.747 28.6842C178.747 28.3729 178.701 28.0936 178.609 27.8464C178.518 27.59 178.348 27.3519 178.101 27.1321C177.854 26.9123 177.497 26.6925 177.03 26.4728C176.572 26.2438 175.968 26.0058 175.217 25.7585C174.338 25.4655 173.491 25.1358 172.676 24.7695C171.861 24.3941 171.133 23.9591 170.492 23.4646C169.851 22.961 169.342 22.3749 168.967 21.7064C168.591 21.0288 168.404 20.2413 168.404 19.3439C168.404 18.4831 168.596 17.7093 168.981 17.0225C169.365 16.3266 169.901 15.7359 170.588 15.2506C171.284 14.7561 172.099 14.3807 173.033 14.1243C173.967 13.8587 174.988 13.7259 176.096 13.7259C177.561 13.7259 178.852 13.9823 179.969 14.4951C181.096 14.9988 181.975 15.7176 182.607 16.6517C183.248 17.5765 183.568 18.6708 183.568 19.9345H178.774C178.774 19.4309 178.669 18.9868 178.458 18.6022C178.257 18.2176 177.95 17.9154 177.538 17.6956C177.126 17.4758 176.609 17.3659 175.986 17.3659C175.381 17.3659 174.873 17.4575 174.461 17.6406C174.049 17.8238 173.738 18.071 173.527 18.3824C173.317 18.6846 173.211 19.0188 173.211 19.3851C173.211 19.6873 173.294 19.962 173.458 20.2092C173.632 20.4473 173.875 20.6717 174.186 20.8823C174.507 21.0929 174.892 21.2944 175.34 21.4867C175.798 21.679 176.311 21.8667 176.879 22.0498C177.941 22.3887 178.884 22.7687 179.708 23.1899C180.542 23.602 181.242 24.0736 181.81 24.6047C182.387 25.1267 182.822 25.7219 183.115 26.3904C183.417 27.0588 183.568 27.8143 183.568 28.6568C183.568 29.5542 183.394 30.3509 183.046 31.0468C182.698 31.7427 182.199 32.3334 181.549 32.8187C180.899 33.2949 180.12 33.6566 179.214 33.9038C178.307 34.1511 177.295 34.2747 176.178 34.2747C175.153 34.2747 174.141 34.1465 173.143 33.8901C172.154 33.6246 171.256 33.2216 170.45 32.6814C169.644 32.1319 168.999 31.4314 168.514 30.5798C168.037 29.719 167.799 28.698 167.799 27.5167H172.634C172.634 28.1028 172.712 28.5972 172.868 29.0002C173.023 29.4031 173.252 29.7282 173.555 29.9754C173.857 30.2135 174.228 30.3875 174.667 30.4974C175.107 30.5981 175.61 30.6485 176.178 30.6485C176.792 30.6485 177.286 30.5615 177.662 30.3875C178.037 30.2043 178.312 29.9662 178.486 29.6732C178.66 29.371 178.747 29.0414 178.747 28.6842ZM202.977 23.602V24.4124C202.977 25.9417 202.762 27.3152 202.331 28.5331C201.91 29.7419 201.31 30.7767 200.532 31.6374C199.753 32.4891 198.833 33.1438 197.771 33.6017C196.709 34.0504 195.536 34.2747 194.254 34.2747C192.963 34.2747 191.782 34.0504 190.711 33.6017C189.648 33.1438 188.724 32.4891 187.936 31.6374C187.158 30.7767 186.553 29.7419 186.123 28.5331C185.702 27.3152 185.491 25.9417 185.491 24.4124V23.602C185.491 22.0727 185.702 20.6992 186.123 19.4812C186.553 18.2633 187.153 17.2286 187.922 16.377C188.701 15.5162 189.621 14.8614 190.683 14.4127C191.755 13.9549 192.936 13.7259 194.227 13.7259C195.509 13.7259 196.681 13.9549 197.743 14.4127C198.815 14.8614 199.74 15.5162 200.518 16.377C201.296 17.2286 201.901 18.2633 202.331 19.4812C202.762 20.6992 202.977 22.0727 202.977 23.602ZM198.087 24.4124V23.5745C198.087 22.5855 198 21.7156 197.826 20.9647C197.661 20.2047 197.414 19.5682 197.084 19.0554C196.754 18.5426 196.347 18.158 195.862 17.9016C195.385 17.6361 194.841 17.5033 194.227 17.5033C193.586 17.5033 193.027 17.6361 192.551 17.9016C192.075 18.158 191.677 18.5426 191.356 19.0554C191.036 19.5682 190.793 20.2047 190.628 20.9647C190.473 21.7156 190.395 22.5855 190.395 23.5745V24.4124C190.395 25.3922 190.473 26.2622 190.628 27.0222C190.793 27.7731 191.036 28.4095 191.356 28.9315C191.686 29.4534 192.089 29.8472 192.565 30.1128C193.05 30.3783 193.613 30.5111 194.254 30.5111C194.868 30.5111 195.413 30.3783 195.889 30.1128C196.365 29.8472 196.764 29.4534 197.084 28.9315C197.414 28.4095 197.661 27.7731 197.826 27.0222C198 26.2622 198.087 25.3922 198.087 24.4124ZM210.298 14.0007V34H205.477V14.0007H210.298ZM218.072 22.3246V26.0332H208.924V22.3246H218.072ZM218.855 14.0007V17.7231H208.924V14.0007H218.855ZM230.819 14.0007V34H225.998V14.0007H230.819ZM236.836 14.0007V17.7231H220.119V14.0007H236.836Z" fill="#00053D"/>
<path d="M89.725 41.7726L83.1043 60H80.3983L88.0217 40.0007H89.7662L89.725 41.7726ZM95.2742 60L88.6398 41.7726L88.5986 40.0007H90.3431L97.9939 60H95.2742ZM94.9308 52.5964V54.7667H83.6949V52.5964H94.9308ZM113.988 53.6403H116.625C116.488 54.904 116.126 56.0349 115.54 57.0331C114.954 58.0312 114.125 58.8233 113.054 59.4094C111.982 59.9863 110.646 60.2747 109.043 60.2747C107.871 60.2747 106.804 60.0549 105.843 59.6154C104.89 59.1759 104.071 58.5532 103.384 57.7473C102.697 56.9323 102.166 55.9571 101.79 54.8216C101.424 53.6769 101.241 52.4041 101.241 51.003V49.0114C101.241 47.6103 101.424 46.342 101.79 45.2065C102.166 44.0619 102.702 43.0821 103.398 42.2671C104.103 41.4521 104.95 40.8248 105.939 40.3853C106.928 39.9457 108.04 39.7259 109.277 39.7259C110.787 39.7259 112.065 40.0098 113.109 40.5776C114.153 41.1453 114.963 41.9328 115.54 42.9401C116.126 43.9383 116.488 45.0966 116.625 46.4153H113.988C113.86 45.4812 113.622 44.68 113.274 44.0115C112.926 43.3339 112.431 42.8119 111.79 42.4456C111.149 42.0793 110.311 41.8962 109.277 41.8962C108.388 41.8962 107.605 42.0656 106.928 42.4044C106.259 42.7432 105.696 43.224 105.238 43.8467C104.789 44.4694 104.451 45.2157 104.222 46.0856C103.993 46.9556 103.878 47.9216 103.878 48.9839V51.003C103.878 51.9829 103.979 52.9032 104.181 53.7639C104.391 54.6247 104.707 55.3802 105.128 56.0304C105.55 56.6805 106.085 57.1933 106.735 57.5688C107.386 57.935 108.155 58.1182 109.043 58.1182C110.169 58.1182 111.067 57.9396 111.735 57.5825C112.404 57.2254 112.907 56.7126 113.246 56.0441C113.594 55.3756 113.841 54.5744 113.988 53.6403ZM129.048 41.7726L122.427 60H119.721L127.345 40.0007H129.089L129.048 41.7726ZM134.597 60L127.963 41.7726L127.922 40.0007H129.666L137.317 60H134.597ZM134.254 52.5964V54.7667H123.018V52.5964H134.254ZM146.814 60H142.638L142.666 57.8435H146.814C148.242 57.8435 149.433 57.5459 150.385 56.9506C151.337 56.3463 152.052 55.5038 152.528 54.4233C153.013 53.3336 153.256 52.0607 153.256 50.6047V49.3822C153.256 48.2376 153.118 47.2211 152.844 46.3329C152.569 45.4355 152.166 44.68 151.635 44.0665C151.104 43.4438 150.454 42.9722 149.685 42.6517C148.924 42.3312 148.05 42.1709 147.061 42.1709H142.556V40.0007H147.061C148.37 40.0007 149.565 40.2204 150.646 40.66C151.727 41.0904 152.656 41.7176 153.434 42.5418C154.222 43.3568 154.826 44.3458 155.248 45.5087C155.669 46.6625 155.879 47.9628 155.879 49.4097V50.6047C155.879 52.0515 155.669 53.3564 155.248 54.5194C154.826 55.6732 154.217 56.6576 153.421 57.4726C152.633 58.2876 151.681 58.9149 150.564 59.3544C149.456 59.7848 148.206 60 146.814 60ZM144.053 40.0007V60H141.402V40.0007H144.053ZM173.975 57.8435V60H163.385V57.8435H173.975ZM163.92 40.0007V60H161.269V40.0007H163.92ZM172.574 48.5993V50.7558H163.385V48.5993H172.574ZM173.838 40.0007V42.1709H163.385V40.0007H173.838ZM179.502 40.0007H182.071L188.623 56.3051L195.161 40.0007H197.743L189.612 60H187.606L179.502 40.0007ZM178.664 40.0007H180.931L181.302 52.1981V60H178.664V40.0007ZM196.301 40.0007H198.568V60H195.93V52.1981L196.301 40.0007ZM205.166 40.0007L210.358 50.0415L215.564 40.0007H218.572L211.677 52.5277V60H209.026V52.5277L202.131 40.0007H205.166Z" fill="#1CC2B4"/>
<path d="M70.9123 13.0909C58.6588 11.8947 51.4019 6.74722 50.0849 5.7392C49.4756 5.24193 48.7857 5 47.9793 5C47.173 5 46.4785 5.2464 45.8602 5.75712C45.7886 5.81537 38.4235 11.7917 25.0778 13.0909C23.3529 13.2029 22 14.6678 22 16.4285C22 51.8615 46.4114 62.3488 46.6351 62.4424C46.8456 62.5455 47.3922 62.7829 47.9835 62.7829C48.5032 62.7829 49.0452 62.6396 49.2827 62.4648C49.5291 62.3618 73.9675 51.7348 73.9675 16.428C73.9675 14.7256 72.6907 13.3233 70.9166 13.0903L70.9123 13.0909Z" fill="url(#paint0_linear_573_1286)"/>
<path d="M47.8896 16.9463C49.1914 16.9463 50.4148 17.482 51.3418 18.4453C52.2505 19.4072 52.751 20.6825 52.751 22.0381V24.375H53.0352C54.235 24.3753 55.21 25.357 55.21 26.5645V28.1348H58.375C58.6571 28.1348 58.8904 27.8773 58.8906 27.5615V26.5967C58.2642 26.3539 57.8184 25.7322 57.8184 24.998C57.8184 24.053 58.556 23.2861 59.4648 23.2861C60.3735 23.2863 61.1104 24.0562 61.1104 24.998C61.1103 25.7323 60.6631 26.354 60.0381 26.5967V27.5615C60.0379 28.5155 59.288 29.292 58.3672 29.292H55.2031V30.4766L60.2334 30.4756C60.4625 29.8161 61.0702 29.3428 61.7803 29.3428C62.6889 29.343 63.4257 30.1125 63.415 31.0527C63.4149 31.9975 62.6781 32.7635 61.7695 32.7637C61.055 32.7637 60.4527 32.2873 60.2236 31.6309H55.1934V32.8154H58.3584C59.2793 32.8154 60.0293 33.5897 60.0293 34.5469V35.5117C60.6558 35.7545 61.1016 36.3762 61.1016 37.1104C61.1014 38.0552 60.3638 38.8213 59.4551 38.8213C58.5466 38.8211 57.8097 38.052 57.8096 37.1104C57.8096 36.3761 58.2569 35.7545 58.8818 35.5117V34.5469C58.8818 34.2309 58.6529 33.9727 58.3662 33.9727H55.2012V35.5439C55.2011 36.7514 54.2254 37.7334 53.0254 37.7334H50.6826V41.1025C50.6828 41.4184 50.9126 41.6758 51.1992 41.6758H52.085C52.3141 41.0165 52.921 40.543 53.6309 40.543C54.5397 40.543 55.2773 41.3129 55.2773 42.2549C55.2773 43.1998 54.5396 43.9658 53.6309 43.9658C52.9163 43.9658 52.314 43.4894 52.085 42.833H51.1992C50.2784 42.833 49.5285 42.0596 49.5283 41.1025V37.7334H48.46L48.4561 43.1055C49.0824 43.3482 49.5282 43.9691 49.5283 44.7031C49.5283 45.648 48.7914 46.4148 47.8828 46.415C46.974 46.415 46.2363 45.6451 46.2363 44.7031C46.2365 43.9691 46.6838 43.3483 47.3086 43.1055V37.7363H46.2412V41.1055C46.241 42.0594 45.4911 42.8359 44.5703 42.8359H43.6846C43.4555 43.4953 42.8486 43.9686 42.1387 43.9688C41.2299 43.9688 40.4923 43.2042 40.4922 42.2578C40.4922 41.3128 41.2299 40.5459 42.1387 40.5459C42.853 40.5461 43.4554 41.0225 43.6846 41.6787H44.5703C44.8524 41.6787 45.0857 41.4213 45.0859 41.1055V37.7363H42.7441C41.5441 37.7363 40.5685 36.7543 40.5684 35.5469V33.9756H37.4033C37.1211 33.9756 36.8877 34.2338 36.8877 34.5498V35.5146C37.5141 35.7575 37.96 36.3791 37.96 37.1133C37.9598 38.0581 37.2222 38.8242 36.3135 38.8242C35.4049 38.824 34.6681 38.055 34.668 37.1133C34.668 36.379 35.1152 35.7574 35.7402 35.5146V34.5498C35.7402 33.5957 36.4902 32.8184 37.4111 32.8184H40.5752V31.6338H35.5459C35.3168 32.2933 34.7101 32.7666 34 32.7666C33.0914 32.7665 32.3537 32.0019 32.3535 31.0557C32.3535 30.1107 33.0913 29.3438 34 29.3438C34.7145 29.3438 35.3167 29.8202 35.5459 30.4766L40.5879 30.4785V29.2939H37.4229C36.502 29.2939 35.752 28.5196 35.752 27.5625V26.5977C35.1255 26.3548 34.6797 25.7332 34.6797 24.999C34.6797 24.0541 35.4174 23.2881 36.3262 23.2881C37.2348 23.2883 37.9716 24.0573 37.9717 24.999C37.9717 25.7333 37.5245 26.3549 36.8994 26.5977V27.5625C36.8995 27.8784 37.1284 28.1366 37.415 28.1367H40.5801V26.5654C40.5801 25.3579 41.5558 24.376 42.7559 24.376H43.0391V22.0391C43.0391 19.2334 45.2134 16.9464 47.8896 16.9463ZM44.1064 26V36H51.0859V34.1455H46.5508V31.7627H50.3887V29.9697H46.5508V27.8613H51.1064V26H44.1064ZM47.8896 19.8184C46.7473 19.8185 45.8154 20.8153 45.8154 22.0381V24.375H49.9639V22.0381C49.9639 21.4412 49.7466 20.8819 49.3506 20.459C48.9577 20.0439 48.4418 19.8184 47.8896 19.8184Z" fill="#E1FEFC"/>
<defs>
<linearGradient id="paint0_linear_573_1286" x1="47.9838" y1="5" x2="70.0154" y2="60.4565" gradientUnits="userSpaceOnUse">
<stop stop-color="#00053D"/>
<stop offset="1" stop-color="#1CC2B4"/>
</linearGradient>
</defs>
</svg>
