<svg width="69" height="69" viewBox="0 0 69 69" fill="none" xmlns="http://www.w3.org/2000/svg">
<path d="M65.1666 53.6665H29.9606C28.9124 50.6612 26.6589 48.2288 23.7419 46.9552C20.825 45.6815 17.5092 45.6815 14.5926 46.9552C11.6756 48.2288 9.42209 50.6612 8.37391 53.6665H3.8341C2.46461 53.6665 1.199 54.3972 0.51437 55.5831C-0.170538 56.7691 -0.170538 58.2305 0.51437 59.4165C1.19898 60.6024 2.46461 61.3331 3.8341 61.3331H8.37391C9.42209 64.3384 11.6756 66.7708 14.5926 68.0448C17.5095 69.3184 20.8256 69.3184 23.7419 68.0448C26.6589 66.7708 28.9127 64.3384 29.9606 61.3331H65.1666C66.5361 61.3331 67.8017 60.6024 68.4863 59.4165C69.1712 58.2305 69.1712 56.7691 68.4863 55.5831C67.8017 54.3972 66.5361 53.6665 65.1666 53.6665ZM19.1667 61.3331C18.15 61.3331 17.1749 60.9291 16.4562 60.2104C15.7374 59.4916 15.3334 58.5165 15.3334 57.4998C15.3334 56.4831 15.7374 55.508 16.4562 54.7893C17.1749 54.0705 18.15 53.6665 19.1667 53.6665C20.1834 53.6665 21.1585 54.0705 21.8772 54.7893C22.596 55.5081 23 56.4831 23 57.4998C22.9988 58.5159 22.5945 59.4905 21.8758 60.2089C21.1573 60.9277 20.1828 61.3319 19.1667 61.3331ZM65.1666 30.6665H60.6268C59.5786 27.6613 57.3251 25.2289 54.4081 23.9552C51.4912 22.6815 48.1754 22.6815 45.2588 23.9552C42.3418 25.2289 40.0883 27.6613 39.0401 30.6665H3.8341C2.46461 30.6665 1.199 31.3972 0.51437 32.5832C-0.170538 33.7691 -0.170538 35.2306 0.51437 36.4165C1.19898 37.6025 2.46461 38.3332 3.8341 38.3332H39.0401C40.0883 41.3384 42.3418 43.7708 45.2588 45.0448C48.1757 46.3185 51.4918 46.3185 54.4081 45.0448C57.3251 43.7708 59.5789 41.3384 60.6268 38.3332H65.1666C66.5361 38.3332 67.8017 37.6025 68.4863 36.4165C69.1712 35.2306 69.1712 33.7691 68.4863 32.5832C67.8017 31.3972 66.5361 30.6665 65.1666 30.6665ZM49.8333 38.3332C48.8165 38.3332 47.8415 37.9292 47.1227 37.2104C46.404 36.4916 46 35.5165 46 34.4998C46 33.4832 46.404 32.5081 47.1227 31.7893C47.8415 31.0706 48.8166 30.6665 49.8333 30.6665C50.85 30.6665 51.8251 31.0705 52.5438 31.7893C53.2626 32.5081 53.6666 33.4832 53.6666 34.4998C53.6654 35.516 53.2611 36.4905 52.5424 37.2089C51.8239 37.9277 50.8494 38.3319 49.8333 38.3332ZM3.83341 15.3332H8.37322C9.4214 18.3385 11.6749 20.7709 14.5919 22.0448C17.5088 23.3185 20.8249 23.3185 23.7412 22.0448C26.6582 20.7709 28.912 18.3385 29.9599 15.3332H65.1659C66.5354 15.3332 67.801 14.6025 68.4856 13.4165C69.1705 12.2306 69.1705 10.7692 68.4856 9.58322C67.801 8.39727 66.5354 7.66656 65.1659 7.66656H29.9599C28.9117 4.66131 26.6582 2.22891 23.7412 0.955246C20.8243 -0.318415 17.5085 -0.318415 14.5919 0.955246C11.6749 2.22891 9.4214 4.66131 8.37322 7.66656H3.83341C2.46392 7.66656 1.19831 8.39728 0.513681 9.58322C-0.171227 10.7692 -0.171227 12.2306 0.513681 13.4165C1.19829 14.6025 2.46392 15.3332 3.83341 15.3332ZM19.1667 7.66656C20.1835 7.66656 21.1585 8.07055 21.8772 8.78934C22.596 9.50813 23 10.4832 23 11.4999C23 12.5166 22.596 13.4917 21.8772 14.2104C21.1585 14.9292 20.1834 15.3332 19.1667 15.3332C18.15 15.3332 17.1749 14.9292 16.4562 14.2104C15.7374 13.4916 15.3334 12.5166 15.3334 11.4999C15.3346 10.4837 15.7389 9.50924 16.4576 8.7908C17.1761 8.07205 18.1506 7.66778 19.1667 7.66656Z" fill="white"/>
</svg>
