<svg width="80" height="80" viewBox="0 0 80 80" fill="none" xmlns="http://www.w3.org/2000/svg">
<path d="M79.8687 57.3331L74.6383 48.2967C74.4616 47.9912 74.1357 47.8032 73.7823 47.8032C71.5205 47.8032 69.7614 47.3331 68.0611 46.8749C66.7653 46.5263 65.5441 46.1972 64.1855 46.0915L63.8831 46.068V10.717C63.8831 10.4546 63.7771 10.2 63.5925 10.0159L53.7522 0.285941C53.5676 0.101845 53.3203 0 53.0572 0L4.17798 0.00391697C1.87299 0.00391697 0 1.87228 0 4.17158V70.5993C0 72.8985 1.87299 74.7669 4.17798 74.7669H55.4245L55.5187 74.8492C57.5252 76.6471 59.893 78.3353 62.5474 79.8668C62.6966 79.953 62.8694 80 63.0422 80C63.2149 80 63.3877 79.953 63.5369 79.8668C73.0313 74.387 78.411 67.2339 79.9858 57.9911C80.0251 57.7639 79.9819 57.5328 79.868 57.333L79.8687 57.3331ZM43.8455 52.1549H12.8359C12.2901 52.1549 11.8503 51.7122 11.8503 51.1717C11.8503 50.6272 12.294 50.1885 12.8359 50.1885H43.8455C44.3913 50.1885 44.8311 50.6311 44.8311 51.1717C44.8311 51.7161 44.3874 52.1549 43.8455 52.1549ZM44.835 57.3997C44.835 57.9442 44.3913 58.3829 43.8494 58.3829H12.8398C12.294 58.3829 11.8542 57.9403 11.8542 57.3997C11.8542 56.8552 12.2979 56.4165 12.8398 56.4165H43.8494C44.3952 56.4165 44.835 56.8591 44.835 57.3997ZM12.8369 45.9275C12.2911 45.9275 11.8513 45.4849 11.8513 44.9443C11.8513 44.3998 12.295 43.9611 12.8369 43.9611H51.0515C51.5973 43.9611 52.0371 44.4037 52.0371 44.9443C52.0371 45.4887 51.5934 45.9275 51.0515 45.9275H12.8369ZM51.0515 40.2009H12.8369C12.2911 40.2009 11.8513 39.7583 11.8513 39.2177C11.8513 38.6732 12.295 38.2345 12.8369 38.2345H51.0515C51.5973 38.2345 52.0371 38.6771 52.0371 39.2177C52.0371 39.7621 51.5934 40.2009 51.0515 40.2009ZM27.9932 20.3306L28.1621 20.2406L28.3231 20.3463C29.403 21.0396 30.6555 21.4039 31.9396 21.4039C33.2236 21.4039 34.4722 21.0357 35.556 20.3463L35.721 20.2406L35.8898 20.3306C38.6188 21.7916 40.3151 24.6158 40.3151 27.6985V30.4012H23.5681V27.6985C23.5681 24.6119 25.2644 21.7878 27.9934 20.3306H27.9932ZM27.204 14.702C27.204 12.0933 29.3322 9.97422 31.9435 9.97422C34.5547 9.97422 36.6829 12.0972 36.6829 14.702C36.6829 17.3068 34.5547 19.4298 31.9435 19.4298C29.3322 19.4298 27.204 17.3068 27.204 14.702ZM12.8359 62.6424H43.8455C44.3913 62.6424 44.8312 63.085 44.8312 63.6256C44.8312 64.17 44.3874 64.6088 43.8455 64.6088H12.8359C12.2901 64.6088 11.8503 64.1662 11.8503 63.6256C11.8503 63.0811 12.294 62.6424 12.8359 62.6424ZM54.0419 3.35092L60.5759 9.81002H54.0419V3.35092ZM77.9554 58.13C76.4201 66.3243 71.5981 72.7517 63.2104 77.7738L63.0415 77.8757L62.8727 77.7738C54.5521 72.7914 49.7428 66.4336 48.1671 58.3373L48.1435 58.2158L53.0047 49.8179L53.1892 49.8139C56.1853 49.7317 58.1055 49.1637 59.6486 48.7093C60.9051 48.3372 61.8946 48.0474 63.1826 48.0317H63.269C64.7454 48.0317 66.0452 48.3803 67.5491 48.7838C69.1002 49.199 70.8593 49.6729 73.0268 49.763L73.2075 49.7709L77.9784 58.0161L77.9548 58.1336L77.9554 58.13ZM72.3481 60.3196L63.8782 68.7686C62.6884 69.9554 60.7565 69.9554 59.5667 68.7686L55.2866 64.4991C53.0406 62.2586 56.0562 59.2464 58.3023 61.4908L61.7224 64.9025L69.3323 57.3114C71.488 55.161 74.5038 58.1692 72.3481 60.3196Z" fill="white"/>
</svg>
