<svg width="74" height="94" viewBox="0 0 74 94" fill="none" xmlns="http://www.w3.org/2000/svg">
<path fill-rule="evenodd" clip-rule="evenodd" d="M37.0064 29.6671C41.4869 29.6671 45.5292 32.3915 47.2454 36.5711C48.9617 40.7507 48.0113 45.5626 44.8413 48.7632C41.6714 51.963 36.9083 52.918 32.7632 51.19C28.6226 49.4578 25.9237 45.3774 25.9237 40.8544C25.9237 34.6739 30.888 29.6671 37.0064 29.6671ZM58.3852 59.5194C59.1142 60.3752 60.2528 60.7514 61.3422 60.495C62.2063 60.3007 63.1114 60.4909 63.8281 61.0159C64.5449 61.541 65.0035 62.3554 65.0855 63.2483C65.1879 64.3645 65.8882 65.3402 66.908 65.7867C67.7189 66.1381 68.3414 66.8284 68.6158 67.676C68.8943 68.5235 68.7919 69.4537 68.3455 70.2226C67.7557 71.1942 67.7557 72.4221 68.3455 73.3977C68.8042 74.1625 68.9025 75.0968 68.6158 75.9484C68.3578 76.8042 67.7312 77.4987 66.908 77.8419C65.8841 78.2884 65.1838 79.2599 65.0855 80.3803C64.9995 81.2691 64.5408 82.0794 63.824 82.6045C63.1114 83.1295 62.2063 83.3197 61.3422 83.1212C60.2528 82.8773 59.1183 83.2494 58.3852 84.0968C57.7914 84.75 56.9518 85.1221 56.0713 85.1097C55.1908 85.1014 54.3593 84.7128 53.7819 84.043C53.0447 83.1997 51.9144 82.8235 50.8249 83.0674C49.9608 83.2659 49.0557 83.0757 48.339 82.5507C47.6263 82.0256 47.1677 81.2194 47.0816 80.3265C46.9833 79.2061 46.2748 78.2304 45.2468 77.7881C44.4482 77.416 43.838 76.7256 43.5676 75.8823C43.2973 75.039 43.3874 74.117 43.8216 73.344C44.4113 72.3683 44.4113 71.1445 43.8216 70.1689C43.3751 69.4 43.2769 68.4739 43.5513 67.6264C43.8216 66.7831 44.44 66.0926 45.2468 65.733C46.2748 65.2906 46.9792 64.315 47.0816 63.1946C47.1635 62.3016 47.6222 61.4914 48.3389 60.9622C49.0556 60.4372 49.9607 60.247 50.8249 60.4413C51.902 60.7101 53.0405 60.3586 53.7818 59.5194C54.3757 58.8662 55.2194 58.4942 56.0999 58.4942C56.9804 58.4942 57.82 58.8662 58.4179 59.5194H58.3852ZM56.0672 63.1616C51.9921 63.1864 48.4987 66.1134 47.7206 70.1525C46.9424 74.1916 49.1007 78.2224 52.8686 79.7852C56.6406 81.3521 60.9818 80.0084 63.2422 76.5854C65.4988 73.1623 65.0524 68.6023 62.1692 65.6915C60.5678 64.0668 58.389 63.1573 56.1201 63.1614L56.0672 63.1616ZM60.7238 67.1098C58.4999 64.8691 55.0187 64.5218 52.4099 66.2829C49.797 68.0483 48.7813 71.4258 49.9854 74.3528C51.1894 77.2839 54.2734 78.9458 57.3532 78.3299C60.433 77.7098 62.6527 74.9812 62.6527 71.8103C62.6568 70.045 61.9606 68.3541 60.7238 67.1098ZM40.3935 6.00281L46.2746 6.71389V6.70975C46.6554 6.75936 46.9708 7.02395 47.0855 7.39189C47.2042 7.75983 47.0978 8.16085 46.8193 8.42545L42.478 12.4976L43.6206 18.3599V18.364C43.6943 18.7402 43.5428 19.1288 43.2315 19.3562C42.9244 19.5836 42.5107 19.6084 42.1749 19.4223L37.0064 16.5119L31.8379 19.4223C31.502 19.6084 31.0884 19.5836 30.7812 19.3562C30.4699 19.1288 30.3184 18.7402 30.3921 18.364L31.5348 12.5017L27.1935 8.42544C26.915 8.16086 26.8085 7.75984 26.9273 7.39188C27.0419 7.02394 27.3573 6.75935 27.7382 6.70974L33.6193 5.99867L36.1135 0.570518C36.2773 0.223249 36.6254 0 37.0063 0C37.3872 0 37.7353 0.22324 37.8991 0.570518L40.3933 5.99867L40.3935 6.00281ZM13.4902 13.8949L19.3713 14.6142C19.744 14.668 20.0512 14.9284 20.17 15.2881C20.2887 15.6477 20.1945 16.0446 19.9283 16.3092L15.5789 20.3731L16.7339 26.2353H16.7298C16.8035 26.6157 16.652 27.0043 16.3407 27.2317C16.0295 27.459 15.6158 27.4838 15.284 27.2937L10.1032 24.3708L4.93471 27.2937C4.59887 27.4838 4.18523 27.459 3.87805 27.2317C3.56679 27.0043 3.41525 26.6157 3.48898 26.2353L4.63161 20.3731L0.310861 16.3092C0.0323668 16.0446 -0.0700231 15.6395 0.0487488 15.2715C0.167521 14.9035 0.486966 14.639 0.86785 14.5935L6.74896 13.8742L9.23492 8.4543C9.39464 8.10289 9.74276 7.87552 10.1278 7.87552C10.5168 7.87552 10.865 8.10289 11.0247 8.4543L13.5107 13.8742L13.4902 13.8949ZM67.2853 13.8949L73.1664 14.6142C73.535 14.6762 73.8381 14.9367 73.9528 15.2964C74.0674 15.656 73.9692 16.0446 73.7029 16.3092L69.3617 20.3731L70.5576 26.2559C70.6313 26.6363 70.4798 27.0249 70.1685 27.2523C69.8573 27.4797 69.4436 27.5045 69.1119 27.3143L63.9433 24.3914L58.7625 27.3143C58.4267 27.5045 58.0171 27.4797 57.7059 27.2523C57.3946 27.0249 57.2431 26.6363 57.3168 26.2559L58.4717 20.3937L54.0855 16.3092C53.807 16.0446 53.7046 15.6395 53.8234 15.2715C53.9421 14.9035 54.2616 14.639 54.6425 14.5935L60.5236 13.8741L63.0095 8.47906C63.1692 8.12353 63.5174 7.89615 63.9065 7.89615C64.2914 7.89615 64.6396 8.12352 64.8034 8.47906L67.2894 13.8989L67.2853 13.8949ZM37.007 54.5785C30.7367 54.595 24.7287 57.1168 20.2964 61.59C15.861 66.0632 13.3628 72.1276 13.3422 78.4538V80.2025C13.3545 82.1166 14.8945 83.6669 16.7907 83.6711H42.0601L44.6484 79.8098C44.587 79.7561 44.5133 79.7147 44.4395 79.6816C43.1085 79.1029 42.0846 77.9701 41.6342 76.5769C41.1877 75.1837 41.3516 73.6623 42.0929 72.4014C42.3017 72.0583 42.3017 71.6242 42.0929 71.281C41.3311 70.0118 41.155 68.474 41.6055 67.0683C42.056 65.6586 43.0922 64.5134 44.4396 63.9346C44.8082 63.7817 45.058 63.4344 45.0908 63.0334C45.2219 61.5657 45.9878 60.2304 47.1877 59.3829C47.9741 58.8 48.916 58.4651 49.8908 58.4113C46.0574 55.8936 41.5818 54.5619 37.007 54.5785ZM45.4765 82.0954L40.7913 89.1441C40.6561 89.3508 40.6643 89.6154 40.8035 89.8139C40.9469 90.0164 41.1967 90.1074 41.4302 90.0454L45.0997 88.987C45.4028 88.9002 45.7223 88.9415 45.9926 89.0986C46.2629 89.2557 46.4595 89.5162 46.5373 89.8221L47.4915 93.5677C47.5612 93.7868 47.7537 93.9398 47.983 93.9646C48.2083 93.9852 48.4253 93.8736 48.54 93.6752L52.4594 85.6219C52.1358 85.2953 51.8532 84.8819 51.1816 85.039C49.7686 85.3656 48.2819 85.0514 47.1147 84.1791C46.3693 83.6458 45.7877 82.914 45.4355 82.0624L45.4765 82.0954ZM66.6543 82.0954H66.6584C66.3062 82.947 65.7246 83.6787 64.9792 84.2121C63.8121 85.0844 62.3254 85.3944 60.9124 85.0678C60.2407 84.9107 59.9581 85.32 59.6346 85.6507L63.554 93.704C63.6645 93.9066 63.8857 94.0182 64.111 93.9976C64.3403 93.9728 64.5287 93.8157 64.6024 93.6007L65.5689 89.884H65.5648C65.6467 89.5781 65.8433 89.3218 66.1095 89.1647C66.3798 89.0076 66.7034 88.9663 67.0024 89.0489L70.6719 90.1073C70.9095 90.1693 71.1552 90.0783 71.2986 89.8799C71.4419 89.6815 71.446 89.4128 71.3108 89.2061L66.6543 82.0954Z" fill="white"/>
</svg>
